# Made in Blockbench 3.7.5
mtllib dltail.mtl
o cube
v 0.09375 0.6314590868564488 0.7902802871106973
v 0.09375 0.9423893756530842 0.03962816694527682
v 0.09375 0.45823167451058255 0.7185271435422429
v 0.09375 0.769161963307218 -0.03212497662317748
v -0.09375 0.9423893756530842 0.03962816694527682
v -0.09375 0.6314590868564488 0.7902802871106973
v -0.09375 0.769161963307218 -0.03212497662317748
v -0.09375 0.45823167451058255 0.7185271435422429
vt 0 1
vt 0 0.90625
vt 0.40625 1
vt 0 0.90625
vt 0.40625 0.90625
vt 0.40625 1
vt 0 0.90625
vt 0 0.8125
vt 0.40625 0.90625
vt 0 0.8125
vt 0.40625 0.8125
vt 0.40625 0.90625
vt 0.09375 0.40625
vt 0.09375 0.8125
vt 0 0.40625
vt 0.09375 0.8125
vt 0 0.8125
vt 0 0.40625
vt 0.1875 0.8125
vt 0.1875 0.40625
vt 0.09375 0.8125
vt 0.1875 0.40625
vt 0.09375 0.40625
vt 0.09375 0.8125
vt 0.46875 0.78125
vt 0.46875 0.6875
vt 0.5625 0.78125
vt 0.46875 0.6875
vt 0.5625 0.6875
vt 0.5625 0.78125
vt 0.46875 0.875
vt 0.46875 0.78125
vt 0.5625 0.875
vt 0.46875 0.78125
vt 0.5625 0.78125
vt 0.5625 0.875
vn 1 0 0
vn 1 0 0
vn 1 0 0
vn 1 0 0
vn 1 0 0
vn 1 0 0
vn -1 0 0
vn -1 0 0
vn -1 0 0
vn -1 0 0
vn -1 0 0
vn -1 0 0
vn 0 0.9238795325112867 0.3826834323650897
vn 0 0.9238795325112867 0.3826834323650897
vn 0 0.9238795325112867 0.3826834323650897
vn 0 0.9238795325112867 0.3826834323650897
vn 0 0.9238795325112867 0.3826834323650897
vn 0 0.9238795325112867 0.3826834323650897
vn 0 -0.9238795325112867 -0.3826834323650897
vn 0 -0.9238795325112867 -0.3826834323650897
vn 0 -0.9238795325112867 -0.3826834323650897
vn 0 -0.9238795325112867 -0.3826834323650897
vn 0 -0.9238795325112867 -0.3826834323650897
vn 0 -0.9238795325112867 -0.3826834323650897
vn 0 -0.3826834323650897 0.9238795325112867
vn 0 -0.3826834323650897 0.9238795325112867
vn 0 -0.3826834323650897 0.9238795325112867
vn 0 -0.3826834323650897 0.9238795325112867
vn 0 -0.3826834323650897 0.9238795325112867
vn 0 -0.3826834323650897 0.9238795325112867
vn 0 0.3826834323650897 -0.9238795325112867
vn 0 0.3826834323650897 -0.9238795325112867
vn 0 0.3826834323650897 -0.9238795325112867
vn 0 0.3826834323650897 -0.9238795325112867
vn 0 0.3826834323650897 -0.9238795325112867
vn 0 0.3826834323650897 -0.9238795325112867
usemtl m_0
f 1/1/1 3/2/2 2/3/3
f 3/4/4 4/5/5 2/6/6
usemtl m_0
f 5/7/7 7/8/8 6/9/9
f 7/10/10 8/11/11 6/12/12
usemtl m_0
f 5/13/13 6/14/14 2/15/15
f 6/16/16 1/17/17 2/18/18
usemtl m_0
f 8/19/19 7/20/20 3/21/21
f 7/22/22 4/23/23 3/24/24
usemtl m_0
f 6/25/25 8/26/26 1/27/27
f 8/28/28 3/29/29 1/30/30
usemtl m_0
f 2/31/31 4/32/32 5/33/33
f 4/34/34 7/35/35 5/36/36
o cube
v 0.125 0.6842480367702446 0.7444966735901509
v 0.125 0.8995074674756076 0.22481443655255212
v 0.125 0.45327815364242285 0.6488258154988785
v 0.125 0.6685375843477859 0.12914357846127972
v -0.125 0.8995074674756076 0.22481443655255212
v -0.125 0.6842480367702446 0.7444966735901509
v -0.125 0.6685375843477859 0.12914357846127972
v -0.125 0.45327815364242285 0.6488258154988785
vt 0.1875 0.8125
vt 0.1875 0.6875
vt 0.46875 0.8125
vt 0.1875 0.6875
vt 0.46875 0.6875
vt 0.46875 0.8125
vt 0.1875 0.6875
vt 0.1875 0.5625
vt 0.46875 0.6875
vt 0.1875 0.5625
vt 0.46875 0.5625
vt 0.46875 0.6875
vt 0.3125 0.28125
vt 0.3125 0.5625
vt 0.1875 0.28125
vt 0.3125 0.5625
vt 0.1875 0.5625
vt 0.1875 0.28125
vt 0.4375 0.5625
vt 0.4375 0.28125
vt 0.3125 0.5625
vt 0.4375 0.28125
vt 0.3125 0.28125
vt 0.3125 0.5625
vt 0.4375 0.5625
vt 0.4375 0.4375
vt 0.5625 0.5625
vt 0.4375 0.4375
vt 0.5625 0.4375
vt 0.5625 0.5625
vt 0.40625 1
vt 0.40625 0.875
vt 0.53125 1
vt 0.40625 0.875
vt 0.53125 0.875
vt 0.53125 1
vn 1 0 0
vn 1 0 0
vn 1 0 0
vn 1 0 0
vn 1 0 0
vn 1 0 0
vn -1 0 0
vn -1 0 0
vn -1 0 0
vn -1 0 0
vn -1 0 0
vn -1 0 0
vn 0 0.9238795325112867 0.3826834323650897
vn 0 0.9238795325112867 0.3826834323650897
vn 0 0.9238795325112867 0.3826834323650897
vn 0 0.9238795325112867 0.3826834323650897
vn 0 0.9238795325112867 0.3826834323650897
vn 0 0.9238795325112867 0.3826834323650897
vn 0 -0.9238795325112867 -0.3826834323650897
vn 0 -0.9238795325112867 -0.3826834323650897
vn 0 -0.9238795325112867 -0.3826834323650897
vn 0 -0.9238795325112867 -0.3826834323650897
vn 0 -0.9238795325112867 -0.3826834323650897
vn 0 -0.9238795325112867 -0.3826834323650897
vn 0 -0.3826834323650897 0.9238795325112867
vn 0 -0.3826834323650897 0.9238795325112867
vn 0 -0.3826834323650897 0.9238795325112867
vn 0 -0.3826834323650897 0.9238795325112867
vn 0 -0.3826834323650897 0.9238795325112867
vn 0 -0.3826834323650897 0.9238795325112867
vn 0 0.3826834323650897 -0.9238795325112867
vn 0 0.3826834323650897 -0.9238795325112867
vn 0 0.3826834323650897 -0.9238795325112867
vn 0 0.3826834323650897 -0.9238795325112867
vn 0 0.3826834323650897 -0.9238795325112867
vn 0 0.3826834323650897 -0.9238795325112867
usemtl m_0
f 9/37/37 11/38/38 10/39/39
f 11/40/40 12/41/41 10/42/42
usemtl m_0
f 13/43/43 15/44/44 14/45/45
f 15/46/46 16/47/47 14/48/48
usemtl m_0
f 13/49/49 14/50/50 10/51/51
f 14/52/52 9/53/53 10/54/54
usemtl m_0
f 16/55/55 15/56/56 11/57/57
f 15/58/58 12/59/59 11/60/60
usemtl m_0
f 14/61/61 16/62/62 9/63/63
f 16/64/64 11/65/65 9/66/66
usemtl m_0
f 10/67/67 12/68/68 13/69/69
f 12/70/70 15/71/71 13/72/72
