# Blender v2.79 (sub 0) OBJ File: 'untitled.obj'
# www.blender.org
mtllib Crystal_G.mtl
o Cube.003_Cube.004_None.002
v 0.524489 0.132297 0.701775
v 0.707800 0.399243 0.867593
v 0.670171 0.399243 0.997420
v 0.501450 0.132297 0.781261
v 0.540344 0.399243 0.959791
v 0.421964 0.132297 0.758223
v 0.577973 0.399243 0.829964
v 0.445003 0.132297 0.678736
v 0.670728 0.526363 0.948034
vt 1.000000 0.000000
vt 1.000000 0.968750
vt -0.000000 0.968750
vt -0.000000 0.000000
vt 1.000000 -0.000000
vt 1.000000 0.968750
vt 0.000000 0.968750
vt -0.000000 0.000000
vt 1.000000 -0.000000
vt 1.000000 0.968750
vt 0.000000 0.968750
vt 0.000000 -0.000000
vt 1.000000 0.000000
vt 1.000000 0.968750
vt 0.000000 0.968750
vt 0.000000 0.000000
vt 0.125000 0.500000
vt 0.375000 0.500000
vt 0.375000 0.750000
vt 0.125000 0.750000
vt -0.000000 1.000000
vt 1.000000 -0.000000
vt 1.000000 1.000000
vt 0.000000 1.000000
vt 1.000000 -0.000000
vt 0.000000 1.000000
vt 1.000000 -0.000000
vt -0.000000 1.000000
vt 1.000000 0.000000
vn 0.7382 -0.6398 0.2140
vn -0.2385 -0.5156 0.8229
vn -0.8104 0.5367 -0.2349
vn 0.2580 0.3757 -0.8901
vn -0.0000 -1.0000 -0.0000
vn -0.2607 0.3506 0.8995
vn 0.9553 0.1034 0.2769
vn 0.2292 0.5673 -0.7909
vn -0.6931 0.6923 -0.2009
usemtl None.002
s 1
f 1/1/1 2/2/1 3/3/1 4/4/1
f 4/5/2 3/6/2 5/7/2 6/8/2
f 6/9/3 5/10/3 7/11/3 8/12/3
f 8/13/4 7/14/4 2/15/4 1/16/4
f 4/17/5 6/18/5 8/19/5 1/20/5
f 5/21/6 3/22/6 9/23/6
f 3/24/7 2/25/7 9/23/7
f 2/26/8 7/27/8 9/23/8
f 7/28/9 5/29/9 9/23/9
o Cube.005_Cube.006_None.002
v 0.321145 0.132297 0.587998
v 0.112522 0.399243 0.720570
v -0.002609 0.399243 0.649748
v 0.250656 0.132297 0.544637
v 0.068214 0.399243 0.534617
v 0.294017 0.132297 0.474149
v 0.183345 0.399243 0.605439
v 0.364505 0.132297 0.517509
v 0.044848 0.526363 0.663427
vt 1.000000 0.000000
vt 1.000000 0.968750
vt -0.000000 0.968750
vt -0.000000 0.000000
vt 1.000000 -0.000000
vt 1.000000 0.968750
vt 0.000000 0.968750
vt -0.000000 0.000000
vt 1.000000 -0.000000
vt 1.000000 0.968750
vt 0.000000 0.968750
vt 0.000000 -0.000000
vt 1.000000 0.000000
vt 1.000000 0.968750
vt 0.000000 0.968750
vt 0.000000 0.000000
vt 0.125000 0.500000
vt 0.375000 0.500000
vt 0.375000 0.750000
vt 0.125000 0.750000
vt -0.000000 1.000000
vt 1.000000 -0.000000
vt 1.000000 1.000000
vt 0.000000 1.000000
vt 1.000000 -0.000000
vt 0.000000 1.000000
vt 1.000000 -0.000000
vt -0.000000 1.000000
vt 1.000000 0.000000
vn -0.4027 -0.6398 0.6546
vn -0.7298 -0.5156 -0.4489
vn 0.4421 0.5367 -0.7187
vn 0.7893 0.3757 0.4856
vn -0.0000 -1.0000 -0.0000
vn -0.7977 0.3506 -0.4907
vn -0.5211 0.1034 0.8472
vn 0.7014 0.5673 0.4315
vn 0.3781 0.6923 -0.6146
usemtl None.003
s 1
f 10/30/10 11/31/10 12/32/10 13/33/10
f 13/34/11 12/35/11 14/36/11 15/37/11
f 15/38/12 14/39/12 16/40/12 17/41/12
f 17/42/13 16/43/13 11/44/13 10/45/13
f 13/46/14 15/47/14 17/48/14 10/49/14
f 14/50/15 12/51/15 18/52/15
f 12/53/16 11/54/16 18/52/16
f 11/55/17 16/56/17 18/52/17
f 16/57/18 14/58/18 18/52/18
o Cube.004_Cube.005_None.002
v 0.303840 0.042142 0.456341
v 0.184411 0.309088 0.239926
v 0.262212 0.309088 0.129390
v 0.351473 0.042142 0.388666
v 0.372747 0.309088 0.207191
v 0.419148 0.042142 0.436299
v 0.294946 0.309088 0.317727
v 0.371515 0.042142 0.503974
v 0.245626 0.436208 0.175912
vt 1.000000 0.000000
vt 1.000000 0.968750
vt -0.000000 0.968750
vt -0.000000 0.000000
vt 1.000000 -0.000000
vt 1.000000 0.968750
vt 0.000000 0.968750
vt -0.000000 0.000000
vt 1.000000 -0.000000
vt 1.000000 0.968750
vt 0.000000 0.968750
vt 0.000000 -0.000000
vt 1.000000 0.000000
vt 1.000000 0.968750
vt 0.000000 0.968750
vt 0.000000 0.000000
vt 0.125000 0.500000
vt 0.375000 0.500000
vt 0.375000 0.750000
vt 0.125000 0.750000
vt -0.000000 1.000000
vt 1.000000 -0.000000
vt 1.000000 1.000000
vt 0.000000 1.000000
vt 1.000000 -0.000000
vt 0.000000 1.000000
vt 1.000000 -0.000000
vt -0.000000 1.000000
vt 1.000000 0.000000
vn -0.6285 -0.6398 -0.4424
vn 0.4932 -0.5156 -0.7007
vn 0.6900 0.5367 0.4856
vn -0.5334 0.3757 0.7578
vn 0.0000 -1.0000 -0.0000
vn 0.5390 0.3506 -0.7658
vn -0.8134 0.1034 -0.5725
vn -0.4740 0.5673 0.6734
vn 0.5901 0.6923 0.4153
usemtl None.002
s 1
f 19/59/19 20/60/19 21/61/19 22/62/19
f 22/63/20 21/64/20 23/65/20 24/66/20
f 24/67/21 23/68/21 25/69/21 26/70/21
f 26/71/22 25/72/22 20/73/22 19/74/22
f 22/75/23 24/76/23 26/77/23 19/78/23
f 23/79/24 21/80/24 27/81/24
f 21/82/25 20/83/25 27/81/25
f 20/84/26 25/85/26 27/81/26
f 25/86/27 23/87/27 27/81/27
o Cube_Cube.001_None.002
v 0.300000 -0.000000 0.600000
v 0.108584 0.438245 0.573154
v 0.108584 0.438245 0.246487
v 0.300000 -0.000000 0.400000
v 0.435250 0.438245 0.246487
v 0.500000 -0.000000 0.400000
v 0.435250 0.438245 0.573154
v 0.500000 -0.000000 0.600000
v 0.148528 0.752344 0.306460
vt -0.000000 0.000000
vt 0.000000 0.968750
vt 1.000000 0.968750
vt 1.000000 -0.000000
vt 0.000000 0.968750
vt -0.000000 0.000000
vt 1.000000 -0.000000
vt 1.000000 0.968750
vt 0.000000 0.968750
vt -0.000000 0.000000
vt 1.000000 0.000000
vt 1.000000 0.968750
vt 0.125000 0.500000
vt 0.375000 0.500000
vt 0.375000 0.750000
vt 0.125000 0.750000
vt 0.000000 1.000000
vt 1.000000 -0.000000
vt 1.000000 1.000000
vt -0.000000 1.000000
vt 1.000000 -0.000000
vt 0.000000 1.000000
vt 1.000000 -0.000000
vt 0.000000 1.000000
vt 1.000000 0.000000
vn -0.9164 -0.4003 -0.0000
vn 0.0000 -0.3306 -0.9438
vn 0.9893 0.1462 0.0000
vn 0.0000 0.0611 0.9981
vn 0.0000 -1.0000 -0.0000
vn 0.0000 0.1875 -0.9823
vn -0.9920 0.1262 0.0000
vn 0.0000 0.6472 0.7623
vn 0.7386 0.6742 0.0000
usemtl None.002
s 1
f 28/88/28 29/89/28 30/90/28 31/91/28
f 31/91/29 30/90/29 32/92/29 33/93/29
f 33/94/30 32/95/30 34/96/30 35/97/30
f 35/98/31 34/99/31 29/89/31 28/88/31
f 31/100/32 33/101/32 35/102/32 28/103/32
f 32/104/33 30/105/33 36/106/33
f 30/107/34 29/108/34 36/106/34
f 29/109/35 34/110/35 36/106/35
f 34/111/36 32/112/36 36/106/36
o Cube.002_Cube.003_None.002
v 0.602304 -0.000000 0.639742
v 0.675452 0.610461 0.793506
v 0.490367 0.610461 0.981524
v 0.461998 -0.000000 0.782270
v 0.302350 0.610461 0.796439
v 0.319470 -0.000000 0.641965
v 0.487434 0.610461 0.608421
v 0.459775 -0.000000 0.499436
v 0.485372 0.963349 0.924085
vt 1.000000 0.000000
vt 1.000000 0.968750
vt 0.000000 0.968750
vt 0.000000 -0.000000
vt 1.000000 0.000000
vt 1.000000 0.968750
vt 0.000000 0.968750
vt 0.000000 0.000000
vt 1.000000 0.000000
vt 1.000000 0.968750
vt 0.000000 0.968750
vt 0.000000 0.000000
vt 1.000000 -0.000000
vt 1.000000 0.968750
vt 0.000000 0.968750
vt -0.000000 0.000000
vt 0.125000 0.500000
vt 0.375000 0.500000
vt 0.375000 0.750000
vt 0.125000 0.750000
vt 0.000000 1.000000
vt 1.000000 0.000000
vt 1.000000 1.000000
vt 0.000000 1.000000
vt 1.000000 0.000000
vt 0.000000 1.000000
vt 1.000000 0.000000
vt 0.000000 1.000000
vt 1.000000 0.000000
vn 0.6894 -0.2535 0.6786
vn -0.6879 -0.1961 0.6988
vn -0.7040 0.1556 -0.6930
vn 0.6984 0.0950 -0.7094
vn 0.0000 -1.0000 -0.0000
vn -0.6976 0.1055 0.7087
vn 0.7072 0.1233 0.6962
vn 0.5905 0.5400 -0.5998
vn -0.6048 0.5290 -0.5953
usemtl Material
s 1
f 37/113/37 38/114/37 39/115/37 40/116/37
f 40/117/38 39/118/38 41/119/38 42/120/38
f 42/121/39 41/122/39 43/123/39 44/124/39
f 44/125/40 43/126/40 38/127/40 37/128/40
f 40/129/41 42/130/41 44/131/41 37/132/41
f 41/133/42 39/134/42 45/135/42
f 39/136/43 38/137/43 45/135/43
f 38/138/44 43/139/44 45/135/44
f 43/140/45 41/141/45 45/135/45
o Cube.001_Cube.002_None.002
v 0.512606 -0.000000 0.362701
v 0.634551 0.287447 0.212734
v 0.914169 0.287447 0.381627
v 0.683800 -0.000000 0.466105
v 0.745275 0.287447 0.661245
v 0.580396 -0.000000 0.637299
v 0.465658 0.287447 0.492351
v 0.409201 -0.000000 0.533895
v 0.799215 0.594660 0.349499
vt 1.000000 0.000000
vt 1.000000 0.968750
vt -0.000000 0.968750
vt -0.000000 0.000000
vt 1.000000 -0.000000
vt 1.000000 0.968750
vt 0.000000 0.968750
vt -0.000000 0.000000
vt 1.000000 -0.000000
vt 1.000000 0.968750
vt 0.000000 0.968750
vt 0.000000 -0.000000
vt 1.000000 0.000000
vt 1.000000 0.968750
vt 0.000000 0.968750
vt 0.000000 0.000000
vt 0.125000 0.500000
vt 0.375000 0.500000
vt 0.375000 0.750000
vt 0.125000 0.750000
vt -0.000000 1.000000
vt 1.000000 -0.000000
vt 1.000000 1.000000
vt 0.000000 1.000000
vt 1.000000 -0.000000
vt 0.000000 1.000000
vt 1.000000 -0.000000
vt -0.000000 1.000000
vt 1.000000 0.000000
vn 0.4303 -0.5543 -0.7125
vn 0.7550 -0.4711 0.4561
vn -0.5044 0.2198 0.8350
vn -0.8523 0.0930 -0.5148
vn 0.0000 -1.0000 -0.0000
vn 0.8016 0.3506 0.4842
vn 0.5142 0.1034 -0.8514
vn -0.7049 0.5673 -0.4258
vn -0.3731 0.6923 0.6177
usemtl None.002
s 1
f 46/142/46 47/143/46 48/144/46 49/145/46
f 49/146/47 48/147/47 50/148/47 51/149/47
f 51/150/48 50/151/48 52/152/48 53/153/48
f 53/154/49 52/155/49 47/156/49 46/157/49
f 49/158/50 51/159/50 53/160/50 46/161/50
f 50/162/51 48/163/51 54/164/51
f 48/165/52 47/166/52 54/164/52
f 47/167/53 52/168/53 54/164/53
f 52/169/54 50/170/54 54/164/54
